<svg width="84" height="148" viewBox="0 0 84 148" fill="none" xmlns="http://www.w3.org/2000/svg">
<rect x="0.5" y="0.5" width="83" height="147" rx="4.5" fill="url(#paint0_linear_61_7976)"/>
<rect x="0.5" y="0.5" width="83" height="147" rx="4.5" stroke="#7B61FF" stroke-dasharray="10 5"/>
<path d="M37.9609 34.499C37.9609 36.3896 39.2393 37.9688 40.9902 38.4092V45.209C40.9902 48.3779 41.5596 50.1074 41.9893 50.1074C42.4297 50.1074 42.9883 48.3887 42.9883 45.209V38.4092C44.7393 37.9795 46.0283 36.3896 46.0283 34.499C46.0283 32.2754 44.2344 30.4492 41.9893 30.4492C39.7549 30.4492 37.9609 32.2754 37.9609 34.499ZM40.8398 34.7246C40.1094 34.7246 39.4648 34.0801 39.4648 33.3281C39.4648 32.5869 40.1094 31.9531 40.8398 31.9531C41.6025 31.9531 42.2256 32.5869 42.2256 33.3281C42.2256 34.0801 41.6025 34.7246 40.8398 34.7246ZM42 54.0391C48.4775 54.0391 52.1943 51.8047 52.1943 49.4414C52.1943 46.6055 47.6934 44.876 44.7393 44.8438V46.4121C46.8125 46.4443 50.0244 47.5723 50.0244 49.1836C50.0244 51.0312 46.6191 52.3418 42 52.3418C37.3594 52.3418 33.9756 51.0527 33.9756 49.1836C33.9756 47.5723 37.1768 46.4443 39.25 46.4121V44.8438C36.2959 44.876 31.7949 46.6055 31.7949 49.4414C31.7949 51.8047 35.5225 54.0391 42 54.0391Z" fill="white"/>
<path d="M37.9609 98.499C37.9609 100.39 39.2393 101.969 40.9902 102.409V109.209C40.9902 112.378 41.5596 114.107 41.9893 114.107C42.4297 114.107 42.9883 112.389 42.9883 109.209V102.409C44.7393 101.979 46.0283 100.39 46.0283 98.499C46.0283 96.2754 44.2344 94.4492 41.9893 94.4492C39.7549 94.4492 37.9609 96.2754 37.9609 98.499ZM40.8398 98.7246C40.1094 98.7246 39.4648 98.0801 39.4648 97.3281C39.4648 96.5869 40.1094 95.9531 40.8398 95.9531C41.6025 95.9531 42.2256 96.5869 42.2256 97.3281C42.2256 98.0801 41.6025 98.7246 40.8398 98.7246ZM42 118.039C48.4775 118.039 52.1943 115.805 52.1943 113.441C52.1943 110.605 47.6934 108.876 44.7393 108.844V110.412C46.8125 110.444 50.0244 111.572 50.0244 113.184C50.0244 115.031 46.6191 116.342 42 116.342C37.3594 116.342 33.9756 115.053 33.9756 113.184C33.9756 111.572 37.1768 110.444 39.25 110.412V108.844C36.2959 108.876 31.7949 110.605 31.7949 113.441C31.7949 115.805 35.5225 118.039 42 118.039Z" fill="#C427FB"/>
<defs>
<linearGradient id="paint0_linear_61_7976" x1="42" y1="0" x2="42" y2="148" gradientUnits="userSpaceOnUse">
<stop offset="0.503378" stop-color="white" stop-opacity="0"/>
<stop offset="0.506757" stop-color="white"/>
<stop offset="1" stop-color="white"/>
</linearGradient>
</defs>
</svg>
